<svg xmlns="http://www.w3.org/2000/svg" xml:space="preserve" id="Layer_1" x="0" y="0" viewBox="0 0 1630.3 445.2"><style>.st0{fill:#cfcfcf}.st1{fill:#272727}</style><path d="M66 310v91q1 9-2 18-9 23-32 22T3 418l-2-15V153l1-11q3-24 27-28l11-1h97q23 0 45 5c35 9 59 36 64 72q4 28-4 55-15 47-62 58-23 7-46 7H66m1-50h51l19-2q17-1 30-12c12-11 14-24 14-39q-2-31-31-40-6-3-14-3l-67-2h-2zM367 441q-48 1-84-31-28-27-33-65-8-42 8-81 24-56 85-65 41-8 80 9 52 26 62 84 7 41-8 80a107 107 0 0 1-95 69zm59-125q1-20-8-42-15-32-50-33-37 0-51 33-19 45 0 89 14 32 48 33 36 1 52-31 10-21 9-49M749 234q13-13 28-24c30-20 76-18 102 4q24 20 26 49l1 36-1 117q-5 26-30 25-24-2-28-28l-1-8v-95l-2-32c-4-36-33-39-55-32q-32 13-35 47l-2 66v48l-1 9q-5 25-30 25-22-1-28-26l-1-10 1-186q5-23 29-22 21 1 26 25zM1029 441q-35 1-65-14-22-10-32-31-6-12-4-24 3-15 18-19 15-3 25 8l9 15q17 25 46 26 13 0 25-3 8-2 14-7c16-11 10-33-2-39l-37-13-53-17q-9-4-17-9c-36-24-32-67-9-90q23-23 54-26 42-5 83 10 15 6 27 18 13 14 10 33-2 8-10 13c-7 5-24 6-34-3l-13-15c-17-23-47-22-64-14q-19 10-13 26 3 7 10 10 15 7 32 12 29 8 58 18 18 6 31 20 22 24 13 56c-6 28-26 44-52 52q-24 8-50 7M565 232l14-19q15-18 38-16 26-1 45 15c14 11 13 31-2 41q-8 5-18 3l-26-7q-28-4-39 21-9 23-9 46l-1 88-1 12q-5 22-26 25-22 2-31-19l-2-14V232q0-9 3-19 7-18 28-16 18 0 24 18z" class="st0"/><path d="m1481 289 31-32 52-54q11-10 25-8c17 3 27 21 19 35q-8 13-19 23l-31 29-4 2 24 39 47 73q8 15 0 30c-8 17-36 19-45 5l-29-45-34-55-3-6-32 30-1 5v47q1 16-12 27c-18 14-43 4-47-19l-1-11V147q1-13 4-25 7-17 28-17 18 2 25 18l3 18v148M1380 188l-21-29q-31-39-72-66-14-10-23-24l-15-22q-10-15-2-30t26-16q14 1 22 12 31 45 55 93 19 38 30 77zM1396 175l-4-13-19-52q-13-33-31-61-5-11 3-21 13-16 33-12 18 8 19 27l1 35v95l-1 2zM1154 342h53q6-1 8 5 12 19 29 32 13 11 31 12 21 0 36-14 26-21 36-52 7-24-3-47c-4-10-17-16-30-15q-19 3-33 16l-4 4q-11-8-23-15c-15-8-33-7-44 7q-9 14-8 29v7h-50q4-52 43-86 40-33 93-28v-2l-9-9q-39-36-85-58-12-4-19-15c-9-17 0-37 19-42q12-2 21 4 45 22 85 54a276 276 0 0 1 92 138q9 35 4 71a122 122 0 0 1-99 102q-27 4-52-2-45-12-70-48-16-21-21-48" class="st1"/></svg>